<svg width="150" height="80" viewBox="0 0 150 80" fill="none" xmlns="http://www.w3.org/2000/svg">
<g clip-path="url(#clip0_2078_36316)">
<path d="M49.0264 52.6641H42.457V78.656H49.0264V52.6641Z" fill="#000"/>
<path d="M102.068 60.0744C101.825 59.953 99.6349 58.7384 96.4719 58.7384C92.214 58.7384 89.2942 61.6534 89.2942 65.6615C89.2942 69.5481 92.0923 72.5845 96.4719 72.5845C99.5132 72.5845 101.703 71.37 102.068 71.2485V78.2931C101.216 78.4145 99.0266 79.1432 96.1069 79.1432C88.686 79.1432 82.2383 74.042 82.2383 65.6615C82.2383 57.8882 88.0777 52.1797 96.1069 52.1797C99.1483 52.1797 101.46 52.9084 102.068 53.1513V60.0744Z" fill="#000"/>
<path d="M33.3336 60.0741C33.0903 59.9526 30.9005 58.738 27.8591 58.738C23.6012 58.738 20.6815 61.653 20.6815 65.6611C20.6815 69.5477 23.4796 72.5842 27.8591 72.5842C30.9005 72.5842 33.0903 71.3696 33.3336 71.2481V78.2927C32.482 78.5356 30.2922 79.2643 27.3725 79.2643C19.9516 79.2643 13.5039 74.1631 13.5039 65.7826C13.5039 58.0093 19.3433 52.3008 27.3725 52.3008C30.4139 52.3008 32.7253 53.0295 33.3336 53.2724V60.0741Z" fill="#000"/>
<path d="M136.498 65.6615C136.498 73.0704 130.78 79.1432 122.751 79.1432C114.722 79.1432 109.004 73.0704 109.004 65.6615C109.004 58.2526 114.722 52.1797 122.751 52.1797C130.78 52.1797 136.498 58.2526 136.498 65.6615ZM122.751 58.8598C118.858 58.8598 115.938 61.8963 115.938 65.6615C115.938 69.4267 118.858 72.4631 122.751 72.4631C126.644 72.4631 129.564 69.4267 129.564 65.6615C129.564 61.8963 126.644 58.8598 122.751 58.8598Z" fill="#000"/>
<path d="M73.9646 58.6169C73.843 58.6169 71.0449 57.7667 68.8552 57.7667C66.1788 57.7667 64.8406 58.6169 64.8406 59.953C64.8406 61.5319 66.787 62.1392 67.8819 62.3821L69.7067 62.9894C73.9646 64.3254 75.9111 67.2404 75.9111 70.3983C75.9111 76.957 70.1934 79.1432 65.0839 79.1432C61.5559 79.1432 58.2712 78.536 58.0279 78.4145V72.4631C58.6362 72.5845 61.3126 73.4347 64.2323 73.4347C67.517 73.4347 68.9768 72.4631 68.9768 71.0056C68.9768 69.6696 67.6386 68.9408 66.0571 68.455C65.6921 68.3335 65.0839 68.0906 64.5972 67.9692C60.9476 66.7546 57.9062 64.6898 57.9062 60.3173C57.9062 55.459 61.5559 52.1797 67.6386 52.1797C70.8016 52.1797 73.843 52.9084 74.0863 53.0299V58.6169H73.9646Z" fill="#000"/>
<path d="M6.56934 24.7286C6.56934 22.9067 5.10949 21.4492 3.28467 21.4492C1.45985 21.4492 0 22.9067 0 24.7286V31.5302C0 33.3521 1.45985 34.8095 3.28467 34.8095C5.10949 34.8095 6.56934 33.3521 6.56934 31.5302V24.7286Z" fill="#000"/>
<path d="M24.4522 15.7403C24.4522 13.9184 22.9923 12.4609 21.1675 12.4609C19.3427 12.4609 17.8828 13.9184 17.8828 15.7403V31.5298C17.8828 33.3516 19.3427 34.8091 21.1675 34.8091C22.9923 34.8091 24.4522 33.3516 24.4522 31.5298V15.7403Z" fill="#000"/>
<path d="M42.4561 3.47466C42.4561 1.6528 40.9962 0.195312 39.1714 0.195312C37.3466 0.195312 35.8867 1.6528 35.8867 3.47466V38.09C35.8867 39.9119 37.3466 41.3694 39.1714 41.3694C40.9962 41.3694 42.4561 39.9119 42.4561 38.09V3.47466Z" fill="#000"/>
<path d="M60.3389 15.7403C60.3389 13.9184 58.879 12.4609 57.0542 12.4609C55.2294 12.4609 53.7695 13.9184 53.7695 15.7403V31.5298C53.7695 33.3516 55.2294 34.8091 57.0542 34.8091C58.879 34.8091 60.3389 33.3516 60.3389 31.5298V15.7403Z" fill="#000"/>
<path d="M78.2256 24.7286C78.2256 22.9067 76.7657 21.4492 74.9409 21.4492C73.1161 21.4492 71.6562 22.9067 71.6562 24.7286V31.5302C71.6562 33.3521 73.1161 34.8095 74.9409 34.8095C76.7657 34.8095 78.2256 33.3521 78.2256 31.5302V24.7286Z" fill="#000"/>
<path d="M96.2295 15.7403C96.2295 13.9184 94.7697 12.4609 92.9448 12.4609C91.12 12.4609 89.6602 13.9184 89.6602 15.7403V31.5298C89.6602 33.3516 91.12 34.8091 92.9448 34.8091C94.7697 34.8091 96.2295 33.3516 96.2295 31.5298V15.7403Z" fill="#000"/>
<path d="M114.112 3.47466C114.112 1.6528 112.652 0.195312 110.828 0.195312C109.003 0.195312 107.543 1.6528 107.543 3.47466V38.09C107.543 39.9119 109.003 41.3694 110.828 41.3694C112.652 41.3694 114.112 39.9119 114.112 38.09V3.47466Z" fill="#000"/>
<path d="M132.116 15.7403C132.116 13.9184 130.656 12.4609 128.832 12.4609C127.007 12.4609 125.547 13.9184 125.547 15.7403V31.5298C125.547 33.3516 127.007 34.8091 128.832 34.8091C130.656 34.8091 132.116 33.3516 132.116 31.5298V15.7403Z" fill="#000"/>
<path d="M149.999 24.7286C149.999 22.9067 148.539 21.4492 146.714 21.4492C144.89 21.4492 143.43 22.9067 143.43 24.7286V31.5302C143.43 33.3521 144.89 34.8095 146.714 34.8095C148.539 34.8095 149.999 33.3521 149.999 31.5302V24.7286Z" fill="#000"/>
</g>
<defs>
<clipPath id="clip0_2078_36316">
<rect width="150" height="78.9474" fill="white" transform="translate(0 0.195312)"/>
</clipPath>
</defs>
</svg>
