<svg width="150" height="97" viewBox="0 0 150 97" fill="none" xmlns="http://www.w3.org/2000/svg">
<g clip-path="url(#clip0_2078_36250)">
<path d="M45.2602 78.15C40.5456 82.8579 35.831 85.2307 30.6261 85.2307C19.7636 85.2307 11.7677 77.2461 11.7677 65.9471C11.7677 54.6482 19.7636 46.6636 30.6261 46.6636C35.831 46.6636 40.9982 48.9987 45.2602 53.2547L45.7128 53.7066L52.8036 45.2324C47.1461 38.6413 40.0553 34.875 31.6067 34.875C23.1582 34.875 15.0867 37.6997 9.42922 42.8973C3.31908 48.5468 0 56.5313 0 65.9471C0 75.3629 3.31908 83.3475 9.42922 88.997C15.0867 94.1946 23.0827 96.9816 31.6067 96.9816C40.1307 96.9816 47.1461 93.6673 52.8036 86.6242L45.2602 78.15Z" fill="#000"/>
<path d="M58.9531 96.0033H71.1734V35.7422H58.9531V96.0033Z" fill="#000"/>
<path d="M119.298 82.8219C115.978 84.7051 113.187 85.6467 110.321 85.6467C106.549 85.6467 104.663 83.7635 104.663 79.0556V47.4938H116.921V36.1949H104.173V17.3633L91.9151 23.9543V36.1949H81.543V47.4938H91.9151V81.3907C91.9151 90.8065 97.5726 96.908 105.569 96.908C111.226 96.908 114.545 95.4768 116.431 94.0832L119.26 82.3323L119.298 82.8219Z" fill="#000"/>
<path d="M129.633 96.0033H141.929V35.7422H129.633V96.0033Z" fill="#000"/>
<path d="M149.474 25.4227C138.158 9.4158 119.753 0 100.442 0C81.5831 0 62.7247 9.4158 51.4096 25.4227L50.957 26.3642H65.1009C74.5301 16.4965 87.2784 11.299 100.479 11.299C113.228 11.299 125.938 16.4965 135.858 26.3642H150.002L149.474 25.4227Z" fill="#000"/>
</g>
<defs>
<clipPath id="clip0_2078_36250">
<rect width="150" height="96.9828" fill="white"/>
</clipPath>
</defs>
</svg>
