<svg width="150" height="28" viewBox="0 0 150 28" fill="none" xmlns="http://www.w3.org/2000/svg">
<g clip-path="url(#clip0_2078_36147)">
<path d="M141.594 23.8826C141.594 21.6591 143.407 19.9297 145.55 19.9297C147.775 19.9297 149.506 21.7415 149.506 23.8826C149.506 26.0238 147.693 27.8356 145.55 27.8356C143.407 27.8356 141.594 26.1062 141.594 23.8826Z" fill="#000"/>
<path d="M22.7473 13.2585C22.7473 17.8703 21.5934 21.3291 19.1209 23.7997C16.6484 26.2703 13.1868 27.5056 8.73626 27.5056H0V0.0820312H9.23077C13.5989 0.0820312 16.8956 1.15262 19.2033 3.4585C21.5934 5.68203 22.7473 8.97615 22.7473 13.2585ZM15.1648 13.5056C15.1648 10.9526 14.6703 9.14085 13.6813 7.90556C12.7747 6.75262 11.2088 6.0938 9.23077 6.0938H7.25275V21.4114H8.9011C11.1264 21.4114 12.6923 20.7526 13.7637 19.435C14.6703 18.1173 15.1648 16.1409 15.1648 13.5056Z" fill="#000"/>
<path d="M53.5711 0H46.7305V27.5059H53.5711V0Z" fill="#000"/>
<path d="M76.1525 17.2131C76.1525 20.5072 75.3283 23.1425 73.5151 25.0366C71.7019 26.9307 69.2294 27.8366 66.0975 27.8366C63.0481 27.8366 60.658 26.9307 58.8448 24.9542C57.0316 22.9778 56.125 20.4248 56.125 17.2131C56.125 13.9189 56.9492 11.2836 58.7624 9.47187C60.5756 7.57776 63.0481 6.67188 66.1799 6.67188C68.158 6.67188 69.8887 7.08364 71.3723 7.90717C72.9382 8.7307 74.0096 9.96599 74.8338 11.5307C75.8228 13.2601 76.1525 15.0719 76.1525 17.2131ZM63.2129 17.2131C63.2129 19.0248 63.4602 20.2601 63.8723 21.166C64.2843 22.0719 65.0261 22.4836 66.1799 22.4836C67.3338 22.4836 67.9931 22.0719 68.4876 21.166C68.8997 20.2601 69.147 18.8601 69.147 17.2131C69.147 15.4013 68.8997 14.166 68.4876 13.2601C68.0756 12.4366 67.3338 11.9425 66.1799 11.9425C65.1909 11.9425 64.3668 12.3542 63.8723 13.2601C63.4602 14.166 63.2129 15.4013 63.2129 17.2131Z" fill="#000"/>
<path d="M85.7977 7H78.957V27.4235H85.7977V7Z" fill="#000"/>
<path d="M85.7977 0H78.957V4.61176H85.7977V0Z" fill="#000"/>
<path d="M99.7248 22.2363C100.631 22.2363 101.785 21.9892 103.022 21.5775V26.7657C102.115 27.1775 101.208 27.4245 100.384 27.5892C99.56 27.754 98.571 27.8363 97.4171 27.8363C95.1094 27.8363 93.4611 27.2598 92.3896 26.0245C91.4006 24.8716 90.8237 23.0598 90.8237 20.6716V12.2716H88.4336V7.00101H90.8237V1.89513L97.7468 0.742188V7.16572H102.197V12.354H97.7468V20.2598C97.9116 21.6598 98.4885 22.2363 99.7248 22.2363Z" fill="#000"/>
<path d="M115.713 22.2363C116.62 22.2363 117.774 21.9892 119.01 21.5775V26.7657C118.103 27.1775 117.197 27.4245 116.372 27.5892C115.548 27.754 114.559 27.8363 113.405 27.8363C111.098 27.8363 109.449 27.2598 108.378 26.0245C107.389 24.8716 106.812 23.0598 106.812 20.6716V12.2716H104.422V7.00101H106.812V1.81278L113.735 0.742188V7.16572H118.186V12.354H113.735V20.2598C113.817 21.6598 114.477 22.2363 115.713 22.2363Z" fill="#000"/>
<path d="M137.473 9.06011C135.825 7.41305 133.517 6.67188 130.55 6.67188C127.418 6.67188 124.946 7.57776 123.215 9.47187C121.484 11.366 120.66 14.0013 120.66 17.4601C120.66 20.7542 121.567 23.3895 123.38 25.2013C125.276 27.0131 127.83 27.9189 131.127 27.9189C132.776 27.9189 134.094 27.8366 135.248 27.5895C136.32 27.3425 137.556 27.013 138.545 26.4366L137.556 21.8248C136.814 22.1542 135.99 22.4013 135.33 22.566C134.341 22.813 133.188 22.8954 132.034 22.8954C130.715 22.8954 129.644 22.566 128.902 21.9895C128.16 21.3307 127.748 20.4248 127.748 19.2719H140.028V16.0601C139.946 13.0131 139.039 10.7072 137.473 9.06011ZM127.748 14.7425C127.83 13.6719 128.16 12.766 128.655 12.2719C129.149 11.7778 129.809 11.5307 130.715 11.5307C131.539 11.5307 132.363 11.7778 132.858 12.3542C133.352 12.9307 133.6 13.6719 133.682 14.7425H127.748Z" fill="#000"/>
<path d="M41.6218 9.06011C39.891 7.41305 37.6657 6.67188 34.6987 6.67188C31.5668 6.67188 29.0943 7.57776 27.3635 9.47187C25.6328 11.366 24.8086 14.0013 24.8086 17.4601C24.8086 20.7542 25.7152 23.3895 27.5284 25.2013C29.424 27.0131 31.9789 27.9189 35.2756 27.9189C36.924 27.9189 38.2427 27.8366 39.3965 27.5895C40.4679 27.3425 41.7042 27.013 42.6932 26.4366L41.7042 21.7425C40.9624 22.0719 40.1383 22.3189 39.4789 22.4836C38.4899 22.7307 37.3361 22.8131 36.1822 22.8131C34.8635 22.8131 33.7921 22.4836 33.0504 21.9072C32.3086 21.2483 31.8965 20.3425 31.8965 19.1895H44.1767V16.0601C44.0943 13.0131 43.1877 10.7072 41.6218 9.06011ZM31.8141 14.7425C31.8965 13.6719 32.2262 12.766 32.7207 12.2719C33.2152 11.7778 33.8745 11.5307 34.7811 11.5307C35.6877 11.5307 36.4295 11.7778 36.924 12.3542C37.4185 12.9307 37.6657 13.6719 37.7482 14.7425H31.8141Z" fill="#000"/>
</g>
<defs>
<clipPath id="clip0_2078_36147">
<rect width="150" height="28" fill="white"/>
</clipPath>
</defs>
</svg>
