<svg width="150" height="62" viewBox="0 0 150 62" fill="none" xmlns="http://www.w3.org/2000/svg">
<path d="M12.1526 15.1053H20.507V28.7762C17.6589 29.3458 15.5703 29.7256 13.102 29.7256C3.79816 29.7256 0.570312 24.4091 0.570312 15.6749C0.570312 6.37114 5.12727 1.05469 14.0513 1.05469C15.1906 1.05469 17.469 1.05469 20.1273 1.62431V10.3585H18.2285L17.2792 6.94076C16.1399 3.90279 14.8108 2.19393 12.9121 2.19393C9.49436 2.19393 7.59563 6.75089 7.59563 15.4851C7.59563 24.2192 8.35512 28.3965 12.9121 28.3965C13.4817 28.3965 14.2412 28.3965 15.0007 28.0167V17.9534L12.3425 16.0547L12.1526 15.1053ZM20.3171 51.9408C20.3171 57.4471 16.5197 60.6749 9.87411 60.6749C7.97537 60.6749 5.31715 60.2952 2.84879 59.9154V49.0927H4.74753L5.50702 51.7509C7.40576 57.637 8.545 59.5357 11.0133 59.5357C13.4817 59.5357 15.1906 57.4471 15.1906 54.599C15.1906 52.3205 14.0513 50.6117 11.7728 49.4724L7.7855 47.1939C4.74753 45.4851 3.03867 43.0167 3.03867 39.7889C3.03867 35.042 7.02601 32.1939 13.4817 32.1939C15.0007 32.1939 16.7096 32.3838 19.3678 32.7635V41.4977H17.469L16.3298 38.08C15.1906 34.4724 14.0513 33.1433 11.9627 33.1433C9.68424 33.1433 8.16525 34.6623 8.16525 36.9408C8.16525 39.0294 9.30449 40.3585 11.3931 41.6876L15.5703 43.9661C18.7982 45.8648 20.3171 48.523 20.3171 51.9408ZM38.3551 58.3965L39.1146 59.5357V60.1053H32.8488L32.469 57.8268C31.7096 59.5357 30.1906 60.6749 27.9121 60.6749C24.6842 60.6749 22.5956 58.5863 22.5956 55.3585C22.5956 52.1306 24.4944 50.042 30.0007 47.7635L32.2792 46.8142V43.7762C32.2792 41.118 31.7096 39.9787 30.1906 39.9787C29.0513 39.9787 28.2918 40.7382 27.1526 43.5863L25.8235 47.0041H23.9247V40.3585C26.2032 39.599 28.6716 39.2192 30.7602 39.2192C35.3171 39.2192 37.7855 41.4977 37.7855 45.4851V58.3965H38.3551ZM40.6336 18.9028C40.6336 25.7382 37.026 29.7256 32.2792 29.7256C27.5323 29.7256 23.9247 25.7382 23.9247 18.9028C23.9247 12.0673 27.5323 8.08 32.2792 8.08C37.026 8.08 40.6336 11.8775 40.6336 18.9028ZM32.6589 54.9787V47.9534L31.8994 48.3332C29.6209 49.2825 28.4817 51.561 28.4817 54.599C28.4817 56.8775 29.0513 58.3965 30.3804 58.3965C31.8994 58.3965 32.6589 57.2572 32.6589 54.9787ZM34.7475 18.9028C34.7475 11.118 33.988 9.02937 32.2792 9.02937C30.5703 9.02937 29.8108 11.118 29.8108 18.9028C29.8108 26.6876 30.5703 28.7762 32.2792 28.7762C33.988 28.7762 34.7475 26.6876 34.7475 18.9028ZM55.064 55.1686L55.8235 55.5484C54.4944 59.3458 52.7855 60.6749 49.5577 60.6749C44.2412 60.6749 41.3931 56.6876 41.3931 49.8522C41.3931 43.0167 44.8108 39.0294 50.3171 39.0294C51.8361 39.0294 53.7349 39.2192 55.4437 39.9787V46.8142H53.545L52.7855 44.156C51.8361 40.7382 51.2665 39.7889 50.1273 39.7889C48.4184 39.7889 47.0893 41.8775 47.0893 49.8522C47.0893 56.3079 48.0387 58.5863 50.507 58.5863C52.5956 58.9661 53.9247 57.8268 55.064 55.1686ZM50.507 29.156H43.102V28.5863L43.8615 27.2572V4.66228L43.102 3.33317V2.76355L49.7475 2.3838V27.4471L50.507 28.7762V29.156ZM60.5703 29.7256C56.2032 29.7256 53.3551 25.7382 53.3551 18.7129C53.3551 11.8775 56.2032 8.08 60.5703 8.08C62.8488 8.08 63.988 9.02937 64.5577 10.7382V4.66228L63.7982 3.33317V2.76355L70.2539 2.3838V27.4471L71.0134 28.7762V29.3458H65.3171L64.9374 26.3079C64.1779 28.7762 62.8488 29.7256 60.5703 29.7256ZM74.8108 58.3965L75.5703 59.5357V60.1053H68.3551V59.5357L69.1146 58.3965V43.7762C69.1146 42.0673 68.545 40.9281 67.4058 40.9281C65.8868 40.9281 64.7475 42.2572 64.7475 44.7256V58.3965L65.507 59.5357V60.1053H58.102V59.5357L58.8615 58.3965V35.8015L58.102 34.4724V33.9028L64.5577 33.3332V41.6876C65.3171 39.9787 66.8361 39.0294 69.3045 39.0294C72.7222 39.0294 74.6209 41.118 74.6209 45.2952C74.8108 45.2952 74.8108 58.3965 74.8108 58.3965ZM59.4311 18.7129C59.4311 26.118 60.1906 28.2066 61.8994 28.2066C64.1779 28.2066 64.5577 24.9787 64.5577 18.523C64.5577 12.2572 64.1779 9.21924 61.8994 9.21924C60.0007 9.40912 59.4311 11.4977 59.4311 18.7129ZM100.254 27.4471L101.013 28.7762V29.3458H93.6083V28.7762L94.3678 27.4471V12.2572C94.3678 10.7382 93.7982 9.97874 92.6589 9.97874C91.3298 9.97874 90.0007 11.3079 90.0007 13.5863V27.2572L90.7602 28.5863V29.156H83.545V28.5863L84.3045 27.2572V12.2572C84.3045 10.7382 83.7349 9.97874 82.5956 9.97874C81.2665 9.97874 79.9374 11.3079 79.9374 13.5863V27.2572L80.6969 28.5863V29.156H73.2918V28.5863L74.0513 27.2572V10.9281L73.2918 9.97874V9.21924L79.7475 8.64962H80.3171L80.507 10.9281C81.0766 9.21924 82.7855 8.08 85.2539 8.08C87.7222 8.08 89.4311 9.21924 90.0007 11.4977C90.5703 9.40912 92.469 8.08 94.9374 8.08C98.1652 8.08 100.254 10.1686 100.254 14.3458V27.4471ZM92.6589 54.2192C92.6589 57.8268 90.3804 60.6749 84.8741 60.6749C83.545 60.6749 81.4564 60.4851 78.6083 59.9154V52.3205H80.3171L80.8868 54.0294C82.2159 58.2066 83.545 59.7256 85.4437 59.7256C87.3425 59.7256 88.4817 58.3965 88.4817 56.3079C88.4817 54.599 87.5323 53.4598 85.6336 52.3205L82.2159 50.4218C79.9374 49.2825 78.7982 47.3838 78.7982 44.9154C78.7982 41.3079 81.6463 39.0294 86.3931 39.0294C87.7222 39.0294 89.6209 39.2192 91.5197 39.599V45.4851H89.8108L88.8615 43.3965C87.9121 40.7382 86.9627 39.9787 85.4437 39.9787C83.7349 39.9787 82.7855 40.9281 82.7855 42.637C82.7855 43.9661 83.545 44.9155 85.6336 46.0547L89.0513 47.9534C91.3298 49.4724 92.6589 51.3711 92.6589 54.2192ZM118.861 27.4471L119.621 28.7762V29.3458H113.355L112.975 27.0673C112.216 28.7762 110.697 29.9154 108.418 29.9154C105.191 29.9154 103.102 27.8268 103.102 24.599C103.102 21.3711 105.001 19.2825 110.507 17.0041L113.165 15.6749V12.637C113.165 9.97874 112.596 8.8395 111.077 8.8395C109.748 8.8395 109.178 9.59899 108.039 12.4471L106.71 15.8648H104.811V9.21924C107.279 8.45975 109.748 8.08 111.836 8.08C116.393 8.08 118.861 10.3585 118.861 14.3458V27.4471ZM113.165 23.8395V16.8142L112.406 17.1939C110.127 18.1433 108.988 20.4218 108.988 23.4598C108.988 25.7382 109.558 27.2572 110.887 27.2572C112.406 27.4471 113.165 26.118 113.165 23.8395ZM139.748 28.5863V29.156H132.342V28.5863L133.102 27.2572V12.8268C133.102 11.118 132.532 9.97874 131.393 9.97874C129.874 9.97874 128.735 11.3079 128.735 13.7762V27.4471L129.494 28.7762V29.3458H122.089V28.7762L122.849 27.4471V10.9281L122.089 9.97874V9.21924L127.975 8.45975H128.545L128.735 10.7382C129.684 9.21924 131.203 8.08 133.672 8.08C137.089 8.08 138.988 10.1686 138.988 14.3458V27.4471L139.748 28.5863Z" fill="#000"/>
</svg>
