<svg width="150" height="31" viewBox="0 0 150 31" fill="none" xmlns="http://www.w3.org/2000/svg">
<g clip-path="url(#clip0_2078_36234)">
<path d="M15.1527 0H6.33245V0.738361H9.15944V15.392C9.15944 19.7654 7.91557 21.0149 5.20166 21.0149C4.18394 21.1285 3.27931 20.3901 3.16623 19.3678C3.16623 19.2542 3.16623 19.1406 3.16623 19.027C3.16623 17.4367 3.05315 16.4711 1.63965 16.4711C0.226159 16.4711 0 17.9479 0 18.4022C0 20.4469 0.904636 21.9804 4.91896 21.9804C9.72484 21.9804 12.2691 20.3901 12.2691 14.9944V0.738361H15.2092L15.1527 0Z" fill="#000"/>
<path d="M16.284 18.5156C15.8317 18.5156 15.3793 18.686 15.0401 19.0268C14.7009 19.3676 14.5312 19.822 14.5312 20.2763C14.5312 20.7307 14.7009 21.1851 15.0401 21.4691C15.3793 21.8099 15.8317 21.9802 16.284 21.9802C16.7363 21.9802 17.1886 21.8099 17.5279 21.4691C17.8671 21.1283 18.0367 20.7307 18.0367 20.2763C18.0367 19.3108 17.3017 18.5724 16.3405 18.5724H16.284" fill="#000"/>
<path d="M35.9012 18.5177C34.9965 18.5177 34.205 19.2561 34.1484 20.1648V20.2216C34.1484 20.676 34.3746 21.1304 34.7138 21.4144C35.0531 21.7552 35.5054 21.9256 35.9577 21.9256C36.41 21.9256 36.8623 21.7552 37.2016 21.4144C37.5408 21.1304 37.7104 20.676 37.7104 20.2216C37.7104 19.7673 37.5408 19.3129 37.2016 18.9721C36.8623 18.6313 36.4666 18.4609 36.0142 18.4609" fill="#000"/>
<path d="M29.7982 0H21.0911V0.738361H23.6354V17.4367C23.6919 18.1182 23.6354 18.7998 23.4092 19.4814C23.1831 19.9358 22.7873 20.3333 22.335 20.4469C21.8261 20.6173 21.2607 20.7309 20.6953 20.7309V21.4125H29.9113V20.7309C29.2894 20.7309 28.724 20.6741 28.1586 20.5037C27.6497 20.3333 27.2539 19.9926 27.0843 19.5382C26.9147 19.0838 26.8016 18.6294 26.8581 18.175V12.3818H29.1763C35.848 12.3818 37.7138 9.71229 37.7138 6.13408C37.7138 2.55587 36.5264 0 29.7982 0ZM28.5543 11.5298H26.8016V0.851955H28.3847C33.5298 0.851955 34.7737 2.95344 34.7737 6.36127C34.7737 9.76909 32.7383 11.6434 28.6674 11.6434" fill="#000"/>
<path d="M65.2455 19.4264C65.0758 18.972 65.0193 18.4608 65.0758 17.9497V0.740158H67.394V0.0585938H61.9096L55.2379 16.3593C55.2379 16.4161 55.1814 16.4729 55.1248 16.4729C55.0683 16.4729 55.0118 16.4161 54.9552 16.3593C54.9552 16.3593 48.0574 0.228985 48.0008 0.0585938H41.8945V0.740158H44.5519V18.8584C44.5519 19.256 44.3823 19.5968 44.2127 19.9376C43.9865 20.2783 43.6473 20.5055 43.2515 20.6191C42.8557 20.7327 42.4034 20.7327 42.0076 20.7327V21.4143H48.0574V20.7327C47.6616 20.7327 47.3223 20.6759 46.9831 20.5623C46.5308 20.4487 46.1916 20.2215 45.9089 19.8808C45.6827 19.54 45.5696 19.1992 45.5131 18.8016L45.4565 17.2681V2.95524H45.7958C45.7958 2.95524 53.6548 21.1871 53.6548 21.4143H54.3898L61.7965 3.12563H61.9661V17.8361C61.9661 18.3472 61.9096 18.8584 61.7965 19.3696C61.6269 19.824 61.2877 20.1647 60.8919 20.3351C60.383 20.5055 59.8742 20.6191 59.3653 20.6191V21.3007H67.7897V20.6191C67.2809 20.6191 66.7155 20.5055 66.2066 20.3351C65.7543 20.1079 65.4151 19.7104 65.2455 19.256" fill="#000"/>
<path d="M76.6119 5.73828C72.0887 5.73828 69.2617 8.69173 69.2617 13.9171C69.2617 21.5846 75.1984 22.039 76.4988 22.039C79.0431 22.039 83.849 20.4487 83.849 13.7467C83.7924 8.52134 80.7393 5.73828 76.6119 5.73828ZM76.5553 21.0735C73.163 21.0735 72.6541 19.3696 72.6541 13.9738C72.6541 9.77087 72.9368 6.59024 76.5553 6.59024C80.4566 6.59024 80.5131 9.88446 80.5131 13.6331C80.5131 19.1424 79.552 21.0735 76.5553 21.0735Z" fill="#000"/>
<path d="M95.6106 5.96484C92.8966 5.96484 92.1051 7.55516 91.3135 9.20227H91.0874C91.0874 9.20227 90.6916 6.8736 90.5785 6.13523H85.3203V6.93039H88.1473V17.5514C88.2038 18.2898 88.0908 19.0282 87.8081 19.7097C87.5254 20.2209 86.8469 20.5049 85.8292 20.5049H85.3769V21.4704H94.084V20.5049H93.6882C92.5574 20.5049 92.0486 20.2777 91.7659 19.7665C91.4832 19.085 91.3135 18.2898 91.4266 17.5514V12.0421C91.4266 10.2246 92.8401 8.06633 94.4798 8.06633C96.176 8.06633 96.176 10.7358 98.1548 9.65665C99.1726 9.03188 98.9464 5.96484 95.6106 5.96484Z" fill="#000"/>
<path d="M130.379 19.8237C129.418 19.8237 129.135 19.3125 129.078 18.4605V10.0546C129.192 8.91863 128.796 7.72589 128.004 6.87394C127.213 6.07878 125.63 5.6244 123.368 5.6244C121.672 5.51081 120.032 5.90839 118.562 6.81714C117.714 7.32831 117.205 8.29386 117.205 9.25941C117.149 9.65699 117.318 10.0546 117.601 10.3386C117.884 10.5657 118.223 10.6793 118.562 10.6793C119.41 10.6793 119.919 10.225 120.089 9.08902C120.089 8.40746 120.371 7.78269 120.767 7.27152C121.333 6.76034 122.124 6.47636 122.859 6.58995C123.707 6.47636 124.612 6.81714 125.177 7.4987C125.63 8.18027 125.799 8.91863 125.799 9.71379V12.3832C123.029 12.6104 116.414 13.1784 116.696 18.1765C116.922 20.278 118.732 21.8684 120.824 21.8116C122.803 21.7548 124.668 20.846 125.912 19.2557C126.195 20.6756 127.439 21.6412 128.852 21.5844C130.888 21.5844 132.132 20.562 132.245 18.1197H131.736C131.623 19.2557 130.944 19.8237 130.379 19.8237ZM125.799 18.1765C125.799 18.2333 125.799 18.2333 125.799 18.2901V18.3469C124.895 19.3693 123.651 19.994 122.294 20.1644C120.993 20.2212 119.863 19.1989 119.806 17.8358C119.806 17.7222 119.806 17.6086 119.806 17.495C119.806 14.6551 123.707 13.2352 125.856 13.2352L125.799 18.1765Z" fill="#000"/>
<path d="M148.246 19.71C147.85 19.0284 147.68 18.2332 147.68 17.4381V10.5088C147.737 9.60009 147.567 8.74814 147.172 7.95298C146.832 7.32821 146.267 6.76024 145.645 6.41946C144.91 6.07868 144.118 5.90828 143.327 5.90828C141.235 5.85149 139.313 6.98743 138.351 8.86173H138.012L137.447 6.07868H132.754V6.87383H135.129V17.4381C135.129 18.0628 135.072 18.6308 134.959 19.2556C134.846 19.71 134.507 20.1075 134.054 20.2211C133.659 20.3915 133.206 20.4483 132.754 20.4483V21.4139H140.274V20.4483C139.708 20.5051 139.143 20.2211 138.747 19.8236C138.408 19.142 138.238 18.4036 138.351 17.6653V13.6327C138.182 12.156 138.408 10.6792 138.917 9.25931C139.539 8.18017 140.726 7.4986 141.97 7.5554C142.818 7.4418 143.666 7.89618 144.062 8.63454C144.458 9.77048 144.627 11.02 144.571 12.2128V17.2109C144.627 17.8357 144.627 18.4604 144.571 19.0852C144.514 19.5396 144.288 19.9371 143.892 20.1643C143.496 20.3915 143.101 20.5051 142.705 20.5051V21.4707H149.999V20.5051C149.094 20.3915 148.529 20.1643 148.246 19.71Z" fill="#000"/>
<path d="M114.153 5.11159C113.644 5.33877 113.305 5.79315 113.248 6.30432C113.135 6.92909 112.909 7.26987 112.57 7.38347C112.231 7.49706 111.835 7.44026 111.496 7.32667C110.139 6.13393 108.33 5.56596 106.577 5.67956C103.467 5.45237 100.697 7.78105 100.47 10.9049C100.47 11.1321 100.47 11.3593 100.47 11.5864C100.47 14.8807 101.714 16.3574 104.428 16.9822C104.598 16.9822 104.598 17.2094 104.428 17.2094C102.11 17.6069 100.075 18.2885 100.075 20.5604C100.075 21.6395 100.753 22.6051 101.771 22.9459C103.241 23.457 104.768 23.6842 106.294 23.6274C107.481 23.6274 108.725 23.6842 109.913 23.7978C110.591 23.8546 111.27 24.0818 111.892 24.4794C112.4 24.9337 112.683 25.5585 112.627 26.2401C112.627 27.3192 111.948 28.2848 110.987 28.6824C109.686 29.3071 108.273 29.5911 106.859 29.5343C105.559 29.6479 104.202 29.3639 103.071 28.6824C102.393 28.1712 102.054 27.3192 102.28 26.5241C102.506 25.8993 102.167 25.1609 101.488 24.9337H101.319C100.81 24.877 100.301 25.1041 100.018 25.5017C99.792 25.8993 99.6224 26.4105 99.6789 26.9216C99.7355 28.3984 100.753 29.5911 102.223 29.8751C103.58 30.3295 104.994 30.4999 106.407 30.4999C108.047 30.5567 109.686 30.2727 111.213 29.5911C113.022 28.7959 114.266 27.0352 114.266 25.0473C114.323 24.0818 114.04 23.173 113.531 22.3779C112.005 20.2764 109.856 20.5604 104.994 20.3332C102.676 20.3332 102.223 19.9356 102.223 19.254C102.223 18.1749 103.071 17.7773 106.407 17.2661C109.743 16.755 112.853 15.5054 112.853 11.4729C112.853 10.5073 112.683 9.48496 112.231 8.57621C112.853 8.7466 113.531 8.7466 114.153 8.57621C114.719 8.40581 115.227 8.00823 115.51 7.49706C115.793 7.09948 115.906 6.53151 115.793 6.07714C115.51 5.22518 114.945 4.8844 114.153 5.11159ZM106.633 16.3006C104.654 16.3006 103.467 15.5622 103.467 11.5296C103.467 8.6898 104.428 6.58831 106.633 6.58831C109.121 6.58831 109.8 8.51941 109.8 11.4729C109.743 15.6758 108.443 16.3006 106.633 16.3006Z" fill="#000"/>
</g>
<defs>
<clipPath id="clip0_2078_36234">
<rect width="150" height="30.5" fill="white"/>
</clipPath>
</defs>
</svg>
