<svg width="150" height="36" viewBox="0 0 150 36" fill="none" xmlns="http://www.w3.org/2000/svg">
<g clip-path="url(#clip0_2078_36211)">
<path d="M26.5007 7.20582C24.0718 5.63685 22.6145 2.96444 22.6058 0.09375H16.4643L16.4556 24.5593C16.3428 27.3869 13.9486 29.5938 11.1034 29.4903C8.25815 29.3869 6.03747 26.9903 6.14157 24.1627C6.24566 21.4041 8.52706 19.2317 11.3029 19.2317C11.8234 19.2317 12.3352 19.3093 12.8296 19.4731V13.2403C12.3265 13.1713 11.8147 13.1369 11.3029 13.1282C5.0746 13.1282 0 18.1713 0 24.361C0 30.5679 5.05725 35.5938 11.3029 35.5938C17.5486 35.5938 22.6058 30.5679 22.6058 24.361V11.9558C25.0954 13.7317 28.0881 14.6886 31.1502 14.6886V8.58513C29.5021 8.58513 27.8886 8.11099 26.5007 7.20582Z" fill="#000"/>
<path d="M37.0234 8.62109H56.385L54.6067 14.1211H49.5755V34.4832H43.3211V14.1211L37.0234 14.1297V8.62109Z" fill="#000"/>
<path d="M88.1172 8.62109H107.93L106.152 14.1211H100.687V34.4832H94.4149V14.1211L88.1172 14.1297V8.62109Z" fill="#000"/>
<path d="M57.5742 16.8438H63.7765V34.4817H57.6089L57.5742 16.8438Z" fill="#000"/>
<path d="M66.2383 8.54297H72.4406V20.5861L78.5908 14.5947H85.9902L78.2178 22.0947L86.927 34.4826H80.0915L74.2796 25.8878L72.4406 27.6637V34.474H66.2383V8.54297Z" fill="#000"/>
<path d="M129.312 8.54297H135.515V20.5861L141.665 14.5947H149.073L141.301 22.0947L150.01 34.4826H143.174L137.362 25.8878L135.523 27.6637V34.474H129.321V8.54297H129.312Z" fill="#000"/>
<path d="M60.6697 14.828C62.3944 14.828 63.7925 13.4385 63.7925 11.7245C63.7925 10.0106 62.3944 8.62109 60.6697 8.62109C58.945 8.62109 57.5469 10.0106 57.5469 11.7245C57.5469 13.4385 58.945 14.828 60.6697 14.828Z" fill="#000"/>
<path d="M116.161 13.3594C110.297 13.3594 105.535 18.0835 105.535 23.9111C105.535 29.7387 110.289 34.4714 116.153 34.4714C122.017 34.4714 126.779 29.7473 126.779 23.9197C126.788 18.0921 122.034 13.368 116.161 13.3594ZM116.161 29.049C113.308 29.049 111 26.7559 111 23.9197C111 21.0835 113.308 18.7904 116.161 18.7904C119.015 18.7904 121.323 21.0835 121.323 23.9197C121.331 26.7559 119.015 29.049 116.161 29.049Z" fill="#000"/>
</g>
<defs>
<clipPath id="clip0_2078_36211">
<rect width="150" height="35.5" fill="white" transform="translate(0 0.09375)"/>
</clipPath>
</defs>
</svg>
