<svg width="401" height="401" viewBox="0 0 401 401" fill="none" xmlns="http://www.w3.org/2000/svg">
<path d="M249.321 148.441L152.986 158.506C149.457 158.898 146.32 162.558 145.928 166.741L136.778 286.865C136.517 291.048 139.131 294.054 142.791 293.662L239.125 283.597C241.348 283.336 243.178 281.114 243.308 278.63L245.269 252.226C245.4 250.658 244.877 249.481 243.962 248.828L174.815 255.102H174.685L171.025 255.494C170.11 255.494 169.456 254.971 169.587 254.056L170.763 240.593C170.763 239.809 171.678 239.025 172.462 238.894L217.297 234.842L229.845 233.535C231.936 233.273 233.897 231.051 234.028 228.568L235.727 205.17C235.988 202.687 234.289 200.857 232.198 201.118L178.344 206.739C177.56 206.739 177.168 206.216 177.168 205.301H175.338C174.423 205.301 173.77 204.778 173.9 203.863L175.077 189.485C175.077 188.57 175.992 187.916 176.776 187.785L249.321 181.25C250.105 180.335 250.759 179.028 250.89 177.721L252.719 152.232C252.981 149.748 251.282 147.918 249.19 148.18L249.321 148.441Z" fill="white"/>
<path d="M249.321 148.441L152.986 158.506C149.457 158.898 146.32 162.558 145.928 166.741L136.778 286.865C136.517 291.048 139.131 294.054 142.791 293.662L239.125 283.597C241.348 283.336 243.178 281.114 243.308 278.63L245.269 252.226C245.4 250.658 244.877 249.481 243.962 248.828C243.439 248.305 242.524 248.044 241.74 248.174L174.685 255.102H174.554C173.9 255.102 173.508 254.448 173.508 253.664L174.554 240.593C174.554 239.809 175.207 239.025 175.992 239.025L217.297 234.711L229.845 233.404C231.936 233.142 233.897 230.92 234.028 228.437L235.727 205.039C235.988 202.556 234.289 200.726 232.198 200.987L178.344 206.608C177.56 206.608 177.168 206.085 177.168 205.17L178.214 191.184C178.214 190.4 178.998 189.615 179.652 189.615L246.707 182.688C247.752 182.688 248.667 182.034 249.452 181.25C250.236 180.335 250.89 179.028 251.02 177.721L252.85 152.232C253.112 149.748 251.412 147.918 249.321 148.18V148.441Z" fill="white"/>
<path d="M314.807 149.225L308.533 220.725C308.141 225.038 304.481 228.829 300.168 229.221L274.548 231.574C270.365 231.966 267.098 228.829 267.49 224.515L273.764 153.016C274.156 148.703 277.947 144.912 282.13 144.65L307.749 142.298C312.063 141.906 315.2 145.043 314.807 149.356V149.225Z" fill="white"/>
<path d="M307.88 245.56L305.919 271.964C305.527 276.277 301.867 280.068 297.554 280.46L271.934 282.813C267.751 283.205 264.483 280.068 264.876 275.755L266.836 249.351C267.228 245.037 270.888 241.247 275.202 240.855L300.821 238.502C305.004 238.11 308.141 241.247 307.88 245.56Z" fill="white"/>
<path d="M47.8939 34.199L249.713 19.4286C274.418 17.2065 280.953 18.6443 296.377 30.0162L360.687 75.2426C371.275 82.9546 374.935 85.1766 374.935 93.6729V341.895C374.935 357.319 369.314 366.599 349.577 368.037L115.341 382.285C100.309 383.069 93.3816 380.847 85.6696 370.913L38.0905 309.217C29.5942 297.845 26.065 289.349 26.065 279.545V58.9036C26.065 46.0938 31.8163 35.6368 48.0246 34.199H47.8939ZM105.015 122.43V332.614C105.015 343.986 110.636 348.038 123.445 347.385L343.695 334.575C356.505 333.791 357.942 326.079 357.942 316.929V108.182C357.942 99.0321 354.283 93.9343 346.571 94.7186L116.518 108.182C108.021 108.966 105.146 113.28 105.146 122.43H105.015ZM88.5453 77.2032C100.179 86.3531 104.492 85.6995 126.321 84.2616L332.323 72.2362C336.767 72.2362 333.107 67.9227 331.539 67.3998L297.292 43.4796C290.887 38.6433 281.868 32.8919 265.268 34.3298L65.9321 48.5773C58.743 49.3616 57.1744 52.8908 60.1808 55.6358L88.5453 77.3339V77.2032ZM43.9725 68.4455C41.0969 65.7006 37.5677 67.3998 37.437 74.4582V268.827C37.3062 285.035 43.7111 293.27 49.0703 299.283L75.3434 330.784C75.997 332.222 80.5719 335.49 80.1797 331.176L77.4348 130.403C77.4348 109.097 77.6962 104.914 67.7621 94.3265L43.9725 68.4455Z" fill="white"/>
</svg>
